<svg width="61" height="61" viewBox="0 0 61 61" fill="none" xmlns="http://www.w3.org/2000/svg">
<g filter="url(#filter0_b_1002_5011)">
<circle cx="30.3672" cy="30.6826" r="29.5" transform="rotate(-180 30.3672 30.6826)" fill="white" fill-opacity="0.1" stroke="white"/>
</g>
<path d="M35.1672 30.6826C35.1672 31.632 34.8857 32.56 34.3582 33.3494C33.8308 34.1387 33.0812 34.7539 32.2041 35.1172C31.327 35.4805 30.3619 35.5756 29.4308 35.3904C28.4996 35.2052 27.6444 34.748 26.9731 34.0767C26.3018 33.4054 25.8446 32.5502 25.6594 31.6191C25.4742 30.6879 25.5693 29.7228 25.9326 28.8457C26.2959 27.9687 26.9111 27.219 27.7004 26.6916C28.4898 26.1641 29.4178 25.8826 30.3672 25.8826C31.6402 25.8826 32.8611 26.3883 33.7613 27.2885C34.6615 28.1887 35.1672 29.4096 35.1672 30.6826ZM27.1672 30.6826C27.1672 31.3155 27.3549 31.9342 27.7065 32.4604C28.0581 32.9867 28.5579 33.3968 29.1426 33.639C29.7273 33.8812 30.3707 33.9446 30.9915 33.8211C31.6122 33.6977 32.1824 33.3929 32.6299 32.9454C33.0775 32.4978 33.3822 31.9276 33.5057 31.3069C33.6292 30.6862 33.5658 30.0428 33.3236 29.458C33.0814 28.8733 32.6712 28.3735 32.145 28.0219C31.6188 27.6703 31.0001 27.4826 30.3672 27.4826C29.5193 27.4853 28.7069 27.8232 28.1074 28.4228C27.5078 29.0223 27.1698 29.8347 27.1672 30.6826ZM40.3672 26.2826L40.3672 35.0826C40.3672 36.5678 39.7772 37.9922 38.727 39.0424C37.6768 40.0926 36.2524 40.6826 34.7672 40.6826L25.9672 40.6826C24.482 40.6826 23.0576 40.0926 22.0074 39.0424C20.9572 37.9922 20.3672 36.5678 20.3672 35.0826L20.3672 26.2826C20.3672 24.7974 20.9572 23.373 22.0074 22.3228C23.0576 21.2726 24.482 20.6826 25.9672 20.6826L34.7672 20.6826C36.2524 20.6826 37.6768 21.2726 38.727 22.3228C39.7772 23.373 40.3672 24.7974 40.3672 26.2826ZM25.9672 22.2826C25.4419 22.2826 24.9218 22.3861 24.4365 22.5871C23.9511 22.7881 23.5102 23.0828 23.1388 23.4542C22.7673 23.8256 22.4727 24.2666 22.2717 24.7519C22.0706 25.2372 21.9672 25.7573 21.9672 26.2826L21.9672 35.0826C21.9672 35.6079 22.0706 36.128 22.2717 36.6134C22.4727 37.0987 22.7673 37.5396 23.1388 37.911C23.5102 38.2825 23.9512 38.5771 24.4365 38.7781C24.9218 38.9792 25.4419 39.0826 25.9672 39.0826L34.7672 39.0826C35.8281 39.0826 36.8455 38.6612 37.5956 37.911C38.3458 37.1609 38.7672 36.1435 38.7672 35.0826L38.7672 26.2826C38.7672 25.7573 38.6637 25.2372 38.4627 24.7519C38.2617 24.2666 37.967 23.8256 37.5956 23.4542C37.2242 23.0828 36.7832 22.7881 36.2979 22.5871C35.8126 22.3861 35.2925 22.2826 34.7672 22.2826L25.9672 22.2826ZM35.5672 24.2826C35.3298 24.2826 35.0978 24.353 34.9005 24.4849C34.7032 24.6167 34.5494 24.8041 34.4585 25.0234C34.3677 25.2427 34.3439 25.4839 34.3902 25.7167C34.4365 25.9495 34.5508 26.1633 34.7187 26.3311C34.8865 26.499 35.1003 26.6133 35.3331 26.6596C35.5659 26.7059 35.8071 26.6821 36.0264 26.5913C36.2457 26.5004 36.4331 26.3466 36.565 26.1493C36.6968 25.952 36.7672 25.72 36.7672 25.4826C36.7672 25.1644 36.6408 24.8591 36.4157 24.6341C36.1907 24.409 35.8854 24.2826 35.5672 24.2826Z" fill="white"/>
<defs>
<filter id="filter0_b_1002_5011" x="-14.6328" y="-14.3174" width="90" height="90" filterUnits="userSpaceOnUse" color-interpolation-filters="sRGB">
<feFlood flood-opacity="0" result="BackgroundImageFix"/>
<feGaussianBlur in="BackgroundImageFix" stdDeviation="7.5"/>
<feComposite in2="SourceAlpha" operator="in" result="effect1_backgroundBlur_1002_5011"/>
<feBlend mode="normal" in="SourceGraphic" in2="effect1_backgroundBlur_1002_5011" result="shape"/>
</filter>
</defs>
</svg>
