<svg width="20" height="12" viewBox="0 0 20 12" fill="none" xmlns="http://www.w3.org/2000/svg">
<path d="M19.1043 2.58906L10.7043 11.0141C10.6043 11.1141 10.496 11.1847 10.3793 11.2261C10.2626 11.2681 10.1376 11.2891 10.0043 11.2891C9.87096 11.2891 9.74596 11.2681 9.6293 11.2261C9.51263 11.1847 9.4043 11.1141 9.3043 11.0141L0.879296 2.58906C0.645963 2.35573 0.529296 2.06406 0.529296 1.71406C0.529296 1.36406 0.654296 1.06406 0.904296 0.814063C1.1543 0.564063 1.44596 0.439063 1.7793 0.439063C2.11263 0.439063 2.4043 0.564063 2.6543 0.814063L10.0043 8.16406L17.3543 0.814062C17.5876 0.580729 17.875 0.464062 18.2163 0.464062C18.5583 0.464062 18.8543 0.589062 19.1043 0.839062C19.3543 1.08906 19.4793 1.38073 19.4793 1.71406C19.4793 2.04739 19.3543 2.33906 19.1043 2.58906Z" fill="white"/>
</svg>
