<svg width="100" height="31" viewBox="0 0 100 31" fill="none" xmlns="http://www.w3.org/2000/svg">
<g clip-path="url(#clip0_923_663)">
<path d="M34.1152 15.5231L35.1183 14.0178C36.851 15.1 38.8559 15.6709 40.9007 15.6642C41.8115 15.737 42.7251 15.5622 43.5441 15.1585C43.7608 15.0437 43.9441 14.8751 44.0764 14.6692C44.2087 14.4632 44.2855 14.2267 44.2993 13.9825C44.3052 13.7604 44.2617 13.5398 44.1719 13.3365C44.0822 13.1332 43.9483 12.9522 43.7801 12.8065C43.2207 12.402 42.5809 12.1213 41.9038 11.9833L38.0213 10.9484C37.0565 10.6649 36.1634 10.1798 35.4015 9.52541C35.0706 9.23077 34.8083 8.86759 34.633 8.4613C34.4576 8.05502 34.3736 7.61545 34.3867 7.17339C34.3867 5.42114 35.5667 4.26865 37.8679 3.71593C38.8922 3.50276 39.9371 3.40415 40.9833 3.42192C42.1967 3.38617 43.4079 3.545 44.5707 3.89233C45.5516 4.20506 46.4787 4.66508 47.3203 5.2565L46.3173 6.76179C45.5711 6.29366 44.7806 5.89976 43.9571 5.58578C43.0195 5.24639 42.028 5.07905 41.0305 5.09186C40.2509 5.02989 39.4688 5.17602 38.7647 5.51522C38.5766 5.61781 38.4181 5.76687 38.3045 5.9481C38.1908 6.12933 38.1258 6.33663 38.1157 6.55011C38.1157 7.39684 38.871 8.03188 40.3815 8.467L44.2757 9.64301C46.8011 10.3721 48.052 11.6305 48.052 13.4062C48.052 16.0875 45.6918 17.4164 40.8771 17.4164C38.9719 17.4331 37.0863 17.0316 35.3543 16.2404C34.919 16.0418 34.504 15.8015 34.1152 15.5231Z" fill="white"/>
<path d="M48.69 10.3957C48.641 9.4244 48.8069 8.45422 49.1761 7.55391C49.5452 6.65361 50.1085 5.84522 50.826 5.186C52.3834 3.91403 54.3616 3.26808 56.3724 3.37495C57.9488 3.35364 59.5046 3.73416 60.8921 4.4804C61.3149 4.69163 61.711 4.95218 62.0722 5.25656L61.0691 6.76186C59.8152 5.74558 58.2594 5.17088 56.6438 5.1272C55.77 5.07481 54.906 5.33336 54.2058 5.85674C53.5055 6.38013 53.0145 7.13433 52.8203 7.98491C52.598 8.7489 52.4906 9.54153 52.5017 10.3369C52.5017 13.0182 53.371 14.6764 55.1097 15.3114C55.6868 15.509 56.2932 15.6084 56.9034 15.6054C58.5133 15.5586 60.0618 14.9794 61.3051 13.959L62.3082 15.4643C61.1468 16.4091 59.746 17.0155 58.2605 17.2166C57.5645 17.3116 56.8624 17.3548 56.16 17.3459C55.2215 17.3333 54.2904 17.1787 53.3986 16.8873C52.4763 16.6078 51.6209 16.1436 50.885 15.5231C50.1573 14.8867 49.5823 14.0956 49.2024 13.2082C48.8225 12.3207 48.6474 11.3596 48.69 10.3957Z" fill="white"/>
<path d="M63.395 16.9108V9.26673C63.3524 8.52623 63.4753 7.78554 63.7549 7.09814C64.0345 6.41074 64.4637 5.79379 65.0117 5.29182C66.3578 4.2597 68.038 3.75737 69.732 3.88061H73.4964V5.63286H70.44C69.9658 5.60353 69.4905 5.66962 69.0424 5.82721C68.5944 5.98481 68.1828 6.23067 67.8321 6.55015C67.5062 6.9195 67.2579 7.35018 67.1018 7.81677C66.9457 8.28336 66.8851 8.77639 66.9234 9.26673V16.9108H63.395Z" fill="white"/>
<path d="M73.5654 10.3957C73.514 9.42414 73.6788 8.45321 74.048 7.55253C74.4173 6.65185 74.9819 5.84371 75.7014 5.18602C77.2515 3.91761 79.2211 3.27175 81.2242 3.37497C82.2814 3.3613 83.3338 3.5202 84.3396 3.84537C85.2088 4.12943 86.0116 4.58542 86.6997 5.18602C87.4192 5.84371 87.9838 6.65185 88.3531 7.55253C88.7224 8.45321 88.8872 9.42414 88.8357 10.3957C88.8886 11.364 88.7244 12.3319 88.3549 13.229C87.9854 14.1261 87.42 14.9299 86.6997 15.5819C85.1553 16.8617 83.1827 17.5128 81.177 17.4048C79.1679 17.5111 77.1922 16.8604 75.6424 15.5819C74.9328 14.9244 74.3784 14.1182 74.0193 13.2214C73.6601 12.3245 73.5051 11.3595 73.5654 10.3957ZM77.3299 10.3957C77.2288 11.8703 77.6461 13.3339 78.51 14.5353C78.8372 14.9414 79.2552 15.2657 79.7305 15.4821C80.2059 15.6986 80.7255 15.8012 81.2478 15.7819C82.0894 15.7945 82.9081 15.5079 83.5569 14.9734C84.2057 14.439 84.6422 13.6916 84.788 12.8654C85.0168 12.0625 85.1242 11.2302 85.1066 10.3957C85.2034 8.91431 84.7868 7.44467 83.9265 6.23267C83.5981 5.82869 83.1796 5.5067 82.7043 5.29232C82.229 5.07795 81.7101 4.97712 81.1888 4.99786C80.3471 4.98518 79.5284 5.27179 78.8796 5.80628C78.2308 6.34078 77.7943 7.08816 77.6485 7.91436C77.4198 8.72124 77.3124 9.55747 77.3299 10.3957Z" fill="white"/>
<path d="M90.5234 16.9107V0.364258H94.0637V16.9107H90.5234Z" fill="white"/>
<path d="M96.3066 16.9107V0.364258H99.8469V16.9107H96.3066Z" fill="white"/>
<path d="M35.1892 24.1902C35.3282 23.9072 35.5452 23.6695 35.8148 23.505C36.0844 23.3404 36.3954 23.2559 36.7115 23.2611C36.9991 23.2405 37.2853 23.3176 37.5232 23.4799C37.7611 23.6423 37.9367 23.8802 38.0214 24.1549C38.162 23.8757 38.3804 23.6429 38.6504 23.4844C38.9204 23.3258 39.2306 23.2483 39.5437 23.2611C39.7383 23.2435 39.9344 23.2683 40.1183 23.3339C40.3023 23.3994 40.4697 23.5041 40.609 23.6406C40.7482 23.7771 40.856 23.9423 40.9247 24.1245C40.9935 24.3067 41.0215 24.5017 41.007 24.6958V27.9534H40.4524V24.8487C40.4734 24.7038 40.4607 24.5561 40.4151 24.4169C40.3695 24.2777 40.2924 24.1508 40.1897 24.0462C40.0869 23.9415 39.9614 23.8619 39.8227 23.8134C39.6841 23.765 39.5361 23.749 39.3903 23.7668C39.2081 23.7491 39.0241 23.7738 38.8531 23.8392C38.6821 23.9045 38.5287 24.0086 38.4051 24.1432C38.2814 24.2779 38.1909 24.4393 38.1407 24.6149C38.0905 24.7904 38.082 24.9751 38.1158 25.1545V27.9534H37.5612V24.8958C37.5612 24.2019 37.3016 23.7198 36.5581 23.7198C35.6259 23.7198 35.2246 24.4254 35.2246 25.3191V27.9064H34.6582V23.3905H35.1892V24.1902Z" fill="white"/>
<path d="M44.3837 28.1063C44.0848 28.1065 43.7891 28.0438 43.5161 27.9223C43.2431 27.8008 42.999 27.6232 42.7996 27.4012C42.6002 27.1792 42.4501 26.9177 42.3591 26.6339C42.268 26.3501 42.2382 26.0504 42.2714 25.7543C42.2354 25.4526 42.2622 25.1468 42.35 24.856C42.4379 24.5651 42.5849 24.2954 42.782 24.0637C42.9791 23.8319 43.222 23.6432 43.4956 23.5091C43.7691 23.3751 44.0674 23.2987 44.3719 23.2847C45.729 23.2847 46.3899 24.4607 46.3899 25.6367V25.7896H42.8496C42.8496 26.7539 43.2981 27.6359 44.3955 27.6359C44.7348 27.6505 45.0672 27.5379 45.3272 27.3201C45.5872 27.1024 45.7558 26.7955 45.7998 26.4599H46.3427C46.2838 26.9296 46.0494 27.3598 45.6864 27.665C45.3233 27.9701 44.8582 28.1277 44.3837 28.1063ZM44.3837 23.7316C43.3925 23.7316 42.9912 24.496 42.885 25.3544H45.8588C45.7644 24.3431 45.2098 23.7316 44.3483 23.7316H44.3837Z" fill="white"/>
<path d="M51.629 27.9534H51.1216V27.0596C50.9902 27.3824 50.7595 27.6553 50.4626 27.8392C50.1657 28.023 49.818 28.1083 49.4694 28.0828C48.2068 28.0828 47.4043 27.1537 47.4043 25.6719C47.4043 24.1902 48.2068 23.2611 49.4576 23.2611C49.7966 23.2387 50.1344 23.3202 50.4255 23.4947C50.7166 23.6692 50.9472 23.9283 51.0862 24.2372V21.6265H51.629V27.9534ZM47.9707 25.6602C47.9707 26.8362 48.5726 27.6359 49.5284 27.6359C50.4843 27.6359 51.0979 26.8832 51.0979 25.6719C51.0979 24.6841 50.6377 23.7198 49.5166 23.7198C48.3956 23.7198 47.9707 24.4842 47.9707 25.6602Z" fill="white"/>
<path d="M53.7403 22.5203H53.1738V21.603H53.7403V22.5203ZM53.7403 27.9535H53.1738V23.3906H53.7403V27.9535Z" fill="white"/>
<path d="M59.2757 27.93C59.135 27.9771 58.9875 28.001 58.8391 28.0005C58.2963 28.0005 58.2372 27.5772 58.2372 27.1656C58.0594 27.4587 57.8054 27.6986 57.5022 27.8601C57.199 28.0215 56.8577 28.0985 56.5143 28.0829C55.5703 28.0829 55.0156 27.6007 55.0156 26.801C55.0156 26.0013 55.5821 25.5074 56.7149 25.3898C57.1717 25.3986 57.6254 25.3146 58.0484 25.1428C58.1664 25.0723 58.2136 24.9429 58.2136 24.7077C58.2136 23.9551 57.7534 23.7316 57.0336 23.7316C56.3137 23.7316 55.8535 24.0609 55.7827 24.8018H55.2516C55.2516 23.8257 55.9597 23.2612 57.0926 23.2612C58.2254 23.2612 58.7801 23.7199 58.7801 24.5784V27.0715C58.7801 27.342 58.7801 27.5301 59.0751 27.5301C59.1455 27.5404 59.2171 27.5404 59.2875 27.5301L59.2757 27.93ZM56.9156 25.7897C56.3373 25.872 55.5467 26.0013 55.5467 26.7422C55.5467 27.2832 55.9597 27.6125 56.6087 27.6125C56.8063 27.6353 57.0065 27.6171 57.1967 27.5591C57.3869 27.501 57.5629 27.4042 57.7137 27.2749C57.8645 27.1457 57.9868 26.9866 58.0728 26.8079C58.1589 26.6292 58.2068 26.4346 58.2136 26.2365V25.4957C58.0366 25.6603 57.5764 25.7073 56.9628 25.7897H56.9156Z" fill="white"/>
<path d="M66.0028 24.7195C66.0028 24.0256 65.5071 23.7316 64.8227 23.7316C64.1382 23.7316 63.7606 24.0139 63.7606 24.4843C63.7606 24.9547 64.209 25.1428 65.0705 25.3428C65.932 25.5427 66.7698 25.7426 66.7698 26.6952C66.7698 27.6477 66.0382 28.0946 64.9525 28.0946C63.8668 28.0946 63.0998 27.5066 63.0762 26.46H63.619C63.619 27.2244 64.1264 27.636 64.9761 27.636C65.8258 27.636 66.2152 27.2832 66.2152 26.7422C66.2152 26.2013 65.4481 25.9661 64.9643 25.8485C64.209 25.6721 63.1942 25.5544 63.1942 24.5548C63.1942 23.7552 63.8432 23.2612 64.8817 23.2612C65.9202 23.2612 66.6164 23.7434 66.6164 24.7195H66.0028Z" fill="white"/>
<path d="M72.1026 25.6837C72.1362 25.9828 72.1054 26.2856 72.0123 26.5719C71.9192 26.8581 71.7659 27.1214 71.5626 27.3439C71.3594 27.5665 71.1109 27.7434 70.8336 27.8626C70.5564 27.9819 70.2568 28.0409 69.9548 28.0357C69.645 28.043 69.3373 27.9838 69.0525 27.8621C68.7677 27.7404 68.5126 27.559 68.3043 27.3303C68.0961 27.1016 67.9397 26.831 67.8458 26.5367C67.7518 26.2424 67.7225 25.9315 67.7599 25.6249C67.7281 25.3218 67.7606 25.0154 67.8553 24.7256C67.9499 24.4358 68.1046 24.1691 68.3093 23.9427C68.514 23.7163 68.7642 23.5352 69.0436 23.4113C69.323 23.2874 69.6254 23.2234 69.9312 23.2234C70.237 23.2234 70.5394 23.2874 70.8188 23.4113C71.0982 23.5352 71.3484 23.7163 71.5531 23.9427C71.7578 24.1691 71.9125 24.4358 72.0072 24.7256C72.1018 25.0154 72.1343 25.3218 72.1026 25.6249V25.6837ZM68.3381 25.6837C68.3381 26.8597 68.9518 27.6359 69.9548 27.6359C70.9579 27.6359 71.5479 26.8832 71.5479 25.6955C71.5479 24.5077 70.9225 23.7433 69.943 23.7433C68.9636 23.7433 68.3381 24.4959 68.3381 25.672V25.6837Z" fill="white"/>
<path d="M73.9667 27.9534H73.4238V21.6265H73.9667V27.9534Z" fill="white"/>
<path d="M79.1962 27.9535H78.6769V27.1068C78.5407 27.4128 78.3141 27.6702 78.0274 27.8446C77.7407 28.019 77.4074 28.1021 77.072 28.0829C76.8555 28.0951 76.6389 28.0596 76.4377 27.9788C76.2366 27.8981 76.0557 27.7741 75.9081 27.6158C75.7605 27.4575 75.6497 27.2686 75.5837 27.0628C75.5177 26.8569 75.498 26.639 75.5261 26.4247V23.3906H76.0926V26.2366C76.0926 27.1303 76.364 27.6478 77.2726 27.6478C78.1813 27.6478 78.7005 26.8834 78.7005 25.9543V23.3906H79.2552L79.1962 27.9535Z" fill="white"/>
<path d="M82.6063 23.8843H81.6622V26.7891C81.6622 27.2477 81.6622 27.5535 82.2404 27.5535H82.6063V28.0357C82.4452 28.0469 82.2835 28.0469 82.1224 28.0357C81.7212 28.0357 81.2728 27.9533 81.1666 27.5182C81.1231 27.1825 81.1231 26.8426 81.1666 26.5068V23.8843H80.2461V23.4375H81.0485V21.991H81.6032V23.3904H82.6063V23.8843Z" fill="white"/>
<path d="M84.387 22.5203H83.7852V21.603H84.3398L84.387 22.5203ZM84.387 27.9535H83.7852V23.3906H84.3398L84.387 27.9535Z" fill="white"/>
<path d="M90.0283 25.6837C90.0601 25.9834 90.0277 26.2864 89.9331 26.5727C89.8386 26.859 89.6842 27.122 89.48 27.3444C89.2759 27.5667 89.0267 27.7433 88.7489 27.8625C88.4712 27.9817 88.1712 28.0407 87.8688 28.0357C87.56 28.0413 87.2536 27.9809 86.9702 27.8584C86.6869 27.7359 86.4332 27.5543 86.2262 27.3258C86.0193 27.0973 85.864 26.8272 85.7707 26.5338C85.6775 26.2404 85.6484 25.9305 85.6856 25.6249C85.6539 25.3218 85.6864 25.0154 85.781 24.7256C85.8757 24.4358 86.0304 24.1691 86.2351 23.9427C86.4398 23.7163 86.69 23.5352 86.9694 23.4113C87.2488 23.2874 87.5512 23.2234 87.857 23.2234C88.1628 23.2234 88.4652 23.2874 88.7446 23.4113C89.024 23.5352 89.2742 23.7163 89.4789 23.9427C89.6836 24.1691 89.8383 24.4358 89.9329 24.7256C90.0276 25.0154 90.0601 25.3218 90.0283 25.6249V25.6837ZM86.2521 25.6837C86.2521 26.8597 86.8657 27.6359 87.8806 27.6359C88.8954 27.6359 89.4619 26.8832 89.4619 25.6955C89.4619 24.5077 88.8364 23.7433 87.857 23.7433C86.8775 23.7433 86.2521 24.4959 86.2521 25.672V25.6837Z" fill="white"/>
<path d="M91.8456 24.2489C91.9847 23.9418 92.2132 23.6834 92.5015 23.5073C92.7898 23.3312 93.1245 23.2454 93.4623 23.2611C93.6769 23.239 93.8939 23.2648 94.0972 23.3368C94.3006 23.4088 94.4853 23.525 94.638 23.6771C94.7906 23.8292 94.9072 24.0132 94.9794 24.2159C95.0516 24.4186 95.0776 24.6348 95.0554 24.8487V27.9534H94.4889V25.0604C94.4889 24.1196 94.0169 23.7903 93.3089 23.7903C92.6008 23.7903 91.8692 24.343 91.8692 25.519V27.9886H91.3027V23.3905H91.8338L91.8456 24.2489Z" fill="white"/>
<path d="M99.304 24.7195C99.245 24.0256 98.7966 23.7316 98.065 23.7316C97.3333 23.7316 96.9911 24.0139 96.9911 24.4843C96.9911 24.9547 97.4395 25.1428 98.301 25.3428C99.1624 25.5427 100 25.7426 100 26.6952C100 27.6477 99.2686 28.0946 98.183 28.0946C97.0973 28.0946 96.3302 27.5066 96.3066 26.46H96.8495C96.8495 27.2244 97.3569 27.636 98.2066 27.636C99.0562 27.636 99.4575 27.2832 99.4575 26.7422C99.4575 26.2013 98.6786 25.9661 98.1948 25.8485C97.4513 25.6721 96.4365 25.5544 96.4365 24.5548C96.4365 23.7552 97.0737 23.2612 98.1122 23.2612C99.1506 23.2612 99.8469 23.7434 99.8469 24.7195H99.304Z" fill="white"/>
<path d="M15.0461 0.364262C12.0674 0.364263 9.1557 1.24464 6.6792 2.89403C4.2027 4.54342 2.27271 6.88771 1.13337 9.63036C-0.00597697 12.373 -0.303482 15.3908 0.278484 18.302C0.860451 21.2131 2.29574 23.8869 4.4028 25.9851C6.50985 28.0832 9.194 29.5114 12.1157 30.0891C15.0374 30.6668 18.0654 30.368 20.8167 29.2304C23.5679 28.0928 25.9188 26.1677 27.572 23.6984C29.2251 21.2292 30.1063 18.3268 30.1039 15.3584C30.1039 13.3883 29.7144 11.4376 28.9575 9.61766C28.2006 7.79773 27.0913 6.14427 25.6929 4.75178C24.2945 3.35929 22.6344 2.25508 20.8076 1.50224C18.9808 0.749412 17.023 0.362717 15.0461 0.364262ZM22.5396 27.4125C22.1732 27.6461 21.776 27.8282 21.3595 27.9534C20.4655 27.5613 19.5423 27.2389 18.5982 26.9891L9.44073 24.2961C7.15614 23.6792 5.03124 22.5803 3.2099 21.0738C2.41895 20.3628 1.79678 19.4852 1.38854 18.5048C0.98031 17.5243 0.796255 16.4656 0.849742 15.4054C0.829188 14.2151 1.09632 13.0373 1.62859 11.9715C2.02499 12.7745 2.57871 13.4902 3.25711 14.0765C5.06353 15.5813 7.17183 16.684 9.44073 17.3106L18.6454 20.0036C20.2422 20.3423 21.7498 21.0114 23.0707 21.9676C23.4592 22.2988 23.7712 22.71 23.9851 23.1728C24.199 23.6357 24.3098 24.1393 24.3097 24.6489C24.2792 25.2226 24.1001 25.7787 23.7899 26.263C23.4797 26.7473 23.0489 27.1433 22.5396 27.4125ZM20.3683 13.3004L11.1282 10.5955C7.55653 9.57634 5.77068 8.06712 5.77068 6.06791C5.79079 5.55943 5.94406 5.06504 6.21525 4.63386C6.48645 4.20269 6.86613 3.84973 7.31658 3.61005C7.88627 3.26757 8.51428 3.03238 9.16931 2.9162C9.8078 3.18296 10.462 3.41074 11.1282 3.59829L20.3683 6.24431C26.3159 7.96912 29.2897 10.9405 29.2897 15.1585C29.3072 16.3988 29.0366 17.6264 28.499 18.7453C27.2717 16.3345 24.5576 14.4764 20.3683 13.3004Z" fill="white"/>
</g>
<defs>
<clipPath id="clip0_923_663">
<rect width="100" height="30" fill="white" transform="translate(0 0.364258)"/>
</clipPath>
</defs>
</svg>
